# xmcd
#
# Track frame offsets:
#	150
#	15547
#	27974
#	45202
#	60669
#	72903
#	88384
#	103404
#
# Disc length: 1550 seconds
# Revision: 0
# Processed by: cddbd v1.5.2PL0 Copyright (c) Steve Scherf et al.
# Submitted via: dBpowerAMP V12.0
#
DISCID=65060c08
DTITLE=Mustang Sally - Mustang Sally
DYEAR=1900
DGENRE=Country
TTITLE0=Damn Good Memory
TTITLE1=Double Standard
TTITLE2=The One That Got Away
TTITLE3=C`Mon DJ
TTITLE4=Whatever You Do, Don`t
TTITLE5=Homewreckin` Man
TTITLE6=Real Woman
TTITLE7=Right Man
EXTD=
EXTT0=
EXTT1=
EXTT2=
EXTT3=
EXTT4=
EXTT5=
EXTT6=
EXTT7=
PLAYORDER=
